<?xml version="1.0" encoding="utf-8"?>
<!-- Generator: Adobe Illustrator 15.0.2, SVG Export Plug-In . SVG Version: 6.00 Build 0)  -->
<!DOCTYPE svg PUBLIC "-//W3C//DTD SVG 1.1//EN" "http://www.w3.org/Graphics/SVG/1.1/DTD/svg11.dtd">
<svg version="1.1" id="manufacturing" xmlns="http://www.w3.org/2000/svg" xmlns:xlink="http://www.w3.org/1999/xlink" x="0px"
	 y="0px" width="864px" height="949.072px" viewBox="0 0 864 949.072" enable-background="new 0 0 864 949.072"
	 xml:space="preserve">
<linearGradient id="background_1_" gradientUnits="userSpaceOnUse" x1="3717.3691" y1="1224.5566" x2="3836.1133" y2="1224.5566" gradientTransform="matrix(-0.0011 -1.3678 -1.9396 0.0016 2810.6284 5244.7993)">
	<stop  offset="0" style="stop-color:#FFFFFF"/>
	<stop  offset="0.4945" style="stop-color:#C1E6F0"/>
	<stop  offset="1" style="stop-color:#C1E6F0"/>
	<stop  offset="1" style="stop-color:#000000"/>
</linearGradient>

<polygon id="background" fill="url(#background_1_)" points="863.098,-0.013 864,161.784 -0.447,161.877 -1.352,0.081 "/>
	<g id="mountains">
		<path id="mountain4_1_" fill="#B2C5BF" d="M579.188,92.756c-7.637-6.117-15.785-12.17-24.972-14.732
			c-17.194-4.798-29.105,14.497-42.931,20.234c-14.679,6.095-31.798,6.132-46.712,13.102c-12.085,5.646-23.83,16.876-36.915,19.522
			l-2.153,4.319c-9.408-0.05-17.883,10.176-24.575,15.184c-0.477,0.357-0.935,0.728-1.402,1.088
			c13.15,8.72,25.505,16.95,34.434,22.911C485.963,154.496,537.673,120.331,579.188,92.756z"/>
		<path id="mountain3_1_" fill="#A6C5C0" d="M759.612,101.198c4.473,2.957,9.065,6.058,12.743,8.72
			c9.682,6.004,20.844,11.359,31.673,12.508c17.096,1.814,33.4-20.624,41.512-13.771c1.575,1.328,16.544,2.813,18.459,4.453
			c0.234-32.01,0.517-67.814-0.524-69.89c-4.792-9.545-37.091-29.302-46.712-28.281c-14.294,1.518-75.635,45.108-84.159,48.135
			c-3.45,1.227-6.896,5.074-10.312,9.959c12.826,8.431,20.767,16.193,23.672,17.9C748.142,92.215,753.054,96.336,759.612,101.198z"/>
		<g id="mountain2">
			<path fill="#96AFAA" d="M724.972,74.876l7.021,5.867c2.45,1.824,4.396,3.473,5.92,4.947l0.556,0.464c0,0,5.541,4.826,11.354,8.628
				c2.844,1.86,6.272,4.093,9.789,6.416c-6.562-4.862-11.476-8.982-13.649-10.266c-2.905-1.707-10.846-9.469-23.672-17.9
				c-2.767-1.819-5.771-3.668-8.991-5.495L724.972,74.876z"/>
			<path fill="#96AFAA" d="M863.596,188.105c-0.008-1.516,0.188-18.47,0.357-35.983c0.165-16.649,0.311-33.803,0.249-38.678
				c-0.001-0.113-0.072-0.225-0.203-0.336c-1.915-1.639-16.884-3.125-18.459-4.453c-8.106-6.853-24.416,15.585-41.512,13.771
				c-10.829-1.148-21.991-6.504-31.673-12.508c6.604,4.787,10.219,8.151,4.714,6.694c11.577,5.909,6.312,6.092,0.215,4.76
				c1.995,1.632-1.607,0.949-8.845-0.967c15.561,7.947,11.455,7.338-2.396,3.566c-0.337-0.092-5.521-2.919-12.186-6.675
				c1.276,1.554,0.771,2.192-2.603,1.3c11.575,5.908,12.271,7.084,6.171,5.751c1.994,1.632-1.604,0.949-8.845-0.967
				c15.562,7.947,11.454,7.338-2.396,3.566c-0.625-0.17-17.96-9.767-30.453-17.243c-5.395-3.224-11.505-8.248-12.303-8.323
				c-3.145-0.292-13.92-8.151-21.765-14.708v6.572L665.182,73.06l-5.883,22.44l-13.926-18.415l-18.561,16.159l0.01-7.378
				l-25.619,17.572l0.71-8.739l-12.856,8.147l7.722-9.927l-16.109,9.202l9.938-10.224l-15.094,8.357l7.793-6.266l-10.274,4.59
				l47.058-31.966l29.194-15.009l8.545-1.478l16.927,2.869l-0.455,0.312l7.271,2.084l7.53,3.641
				c-0.821-0.885-1.323-1.443-1.323-1.443l7.396,1.742l11.943,5.512l3.354,2.105l0.771-0.565
				c-13.45-7.363-30.605-14.161-51.38-16.785c-13.374-1.689-42.772,17.989-80.67,43.159c-41.517,27.575-93.227,61.74-145.229,81.628
				c8.507,5.68,13.911,9.301,13.911,9.301s-39.373,21.928-90.503,35.496c25.626,4.67,58.983-7.238,83.144-10.095
				c12.147-1.437,24.318-1.517,36.486-0.924c16.555,0.806,33.104,2.854,49.589,4.44c20.271,1.949,40.438,3.194,60.389,0.541
				c78.298-10.421,243.279,18.043,274.979,10.303c4.021-0.983,0.653-30.448,0.122-31.723c-0.06-0.133,0.191-0.436,0.507-0.874
				C863.023,190.216,863.601,189.292,863.596,188.105z"/>
			<path fill="#87A49F" d="M707.109,64.842l-11.943-5.512l-7.396-1.742c0,0,0.507,0.559,1.327,1.443l-7.529-3.641l-7.271-2.084
				l0.455-0.312l-16.927-2.869l-8.545,1.478l-29.194,15.009l-47.058,31.966l10.274-4.59l-7.793,6.266l15.095-8.357l-9.938,10.224
				l16.109-9.202l-7.722,9.927l12.856-8.147l-0.71,8.739l25.619-17.572l-0.013,7.378l18.562-16.159l13.93,18.415l5.884-22.44
				l16.494,20.184v-6.572c7.845,6.557,18.62,14.416,21.763,14.708c0.8,0.075,6.911,5.099,12.305,8.323
				c12.493,7.476,29.828,17.073,30.453,17.243c13.85,3.772,17.957,4.381,2.396-3.566c7.236,1.916,10.839,2.599,8.847,0.967
				c6.099,1.333,5.402,0.157-6.173-5.751c3.371,0.893,3.881,0.254,2.603-1.3c6.663,3.756,11.849,6.583,12.186,6.675
				c13.852,3.772,17.955,4.381,2.396-3.566c7.232,1.916,10.84,2.599,8.845,0.967c6.097,1.332,11.36,1.149-0.215-4.76
				c5.505,1.458,1.892-1.907-4.716-6.694c-3.675-2.662-8.271-5.763-12.741-8.72c-3.516-2.322-6.945-4.555-9.789-6.416
				c-5.812-3.802-11.354-8.628-11.354-8.628l-0.557-0.464c-1.521-1.474-3.47-3.123-5.92-4.947l-7.021-5.867l-11.681-7.339
				l-1.96-1.232l-0.104,0.078l-0.771,0.565L707.109,64.842z M681.677,75.148l1.062,0.558l-1.062-0.07V75.148z"/>
		</g>
		<g id="mountain1_2_">
			<g>
				<path fill="#94AFA9" d="M272.042,85.452c0.624,0.032,1.187,0.043,1.703,0.04l-11.022-4.303
					C268.211,83.792,271.778,85.439,272.042,85.452z"/>
				<path opacity="0.64" fill="#87A49F" enable-background="new    " d="M272.042,85.452c0.624,0.032,1.187,0.043,1.703,0.04
					l-11.022-4.303C268.211,83.792,271.778,85.439,272.042,85.452z"/>
				<path fill="#94AFA9" d="M274.95,85.446c1.677-0.123,2.581-0.495,2.842-1.067l-8.988-2.648L274.95,85.446z"/>
				<path opacity="0.64" fill="#87A49F" enable-background="new    " d="M274.95,85.446c1.677-0.123,2.581-0.495,2.842-1.067
					l-8.988-2.648L274.95,85.446z"/>
			</g>
		<g id="mountain1_3_">
			<path fill="#94AFA9" d="M165.296,60.762c-10.227,4.267-20.511,8.927-29.061,12.929L165.296,60.762z"/>
			<path fill="#94AFA9" d="M447.867,183.685c0,0-5.404-3.622-13.911-9.301c-8.929-5.961-21.279-14.191-34.434-22.911
				c-29.61-19.628-63.251-41.709-70.896-45.829c-82.823-44.652-125.57-60.598-125.569-60.598
				C174.611,37.581,0.111,134.999,0,136.974c-0.54,9.588,0.515,39.71,0,61.513c-0.068,2.847-2.229,24.785,0.993,33.867
				c1.043,2.941,69.863,6.345,81.615-3.619c12.012-10.183,123.819-13.476,154.894-4.943c39.07,10.729,82.59,5.28,119.862-4.611
				C408.494,205.613,447.867,183.685,447.867,183.685z M274.95,85.446l2.411,1.458l-3.616-1.412
				c-0.517,0.003-1.079-0.008-1.703-0.04c-0.264-0.013-3.831-1.661-9.319-4.263l-1.432-0.559l11.212,8.811l-17.192-6.976l8.97,8.811
				l-13.828-6.363l1.867,8.566l-33.614-22.583l29.923,22.348l-34.48-18.096v18.096L197.654,73.06L191.77,95.5l-13.925-18.415
				l-18.563,16.159l0.015-10.88l-11.215,5.045l-7.558,5.078l0.406-1.86l-3.358,1.511l3.633-2.772l1.188-5.444l-13.828,6.363
				l8.97-8.811l-17.192,6.976l11.212-8.811l-16.072,6.274l8.559-5.173l-6.351,1.871c-1.449,0.718-2.249,1.12-2.249,1.12l0.883-0.718
				l-3.085,0.909l4.346-1.934l2.683-2.18c0,0,45.109-24.08,55.817-28.307c2.958-1.169,10.182-3.125,16.885-4.031
				c-0.672-0.328-1.042-0.508-1.042-0.508l3.441,0.227c6.672-0.64,12.14,0.237,12.177,0.729c0.012,0.15,8.059,1.542,7.787,2.387
				c-0.175,0.542-2.436-0.207-6.038-0.764l10.872,3.134c0,0,6.115,3.882,10.161,5.551c14.57,6.013,48.208,21.28,47.534,25.914
				l1.741,0.774l-1.812-0.534C277.531,84.952,276.627,85.323,274.95,85.446z"/>
			<path fill="#94AFA9" d="M199.384,49.224l78.479,34.915c0.674-4.634-32.964-19.901-47.534-25.914
				c-4.046-1.669-10.161-5.551-10.161-5.551l-10.872-3.134C206.635,49.127,203.245,48.827,199.384,49.224z"/>
			<path opacity="0.64" fill="#87A49F" enable-background="new    " d="M199.384,49.224l78.479,34.915
				c0.674-4.634-32.964-19.901-47.534-25.914c-4.046-1.669-10.161-5.551-10.161-5.551l-10.872-3.134
				C206.635,49.127,203.245,48.827,199.384,49.224z"/>
			<path fill="#94AFA9" d="M195.37,47.188l-3.441-0.227c0,0,0.371,0.181,1.042,0.508c0.807-0.109,1.608-0.206,2.391-0.281
				C195.365,47.188,195.368,47.188,195.37,47.188z"/>
			<path opacity="0.64" fill="#87A49F" enable-background="new    " d="M195.37,47.188l-3.441-0.227c0,0,0.371,0.181,1.042,0.508
				c0.807-0.109,1.608-0.206,2.391-0.281C195.365,47.188,195.368,47.188,195.37,47.188z"/>
			<path fill="#94AFA9" d="M209.296,49.54c3.603,0.558,5.863,1.306,6.038,0.764c0.272-0.845-7.775-2.237-7.787-2.387
				c-0.037-0.492-5.505-1.369-12.177-0.729l7.472,0.492L209.296,49.54z"/>
			<path opacity="0.54" fill="#87A49F" enable-background="new    " d="M209.296,49.54c3.603,0.558,5.863,1.306,6.038,0.764
				c0.272-0.845-7.775-2.237-7.787-2.387c-0.037-0.492-5.505-1.369-12.177-0.729l7.472,0.492L209.296,49.54z"/>
			<path fill="#94AFA9" d="M115.443,83.73c0,0,0.8-0.402,2.249-1.12l-1.365,0.402L115.443,83.73z"/>
			<path opacity="0.54" fill="#87A49F" enable-background="new    " d="M115.443,83.73c0,0,0.8-0.402,2.249-1.12l-1.365,0.402
				L115.443,83.73z"/>
			<path fill="#94AFA9" d="M165.296,60.762l28.728-12.781c-0.409-0.199-0.759-0.369-1.052-0.512
				c-6.703,0.905-13.927,2.861-16.885,4.031c-10.708,4.227-55.817,28.307-55.817,28.307l-2.683,2.18l18.648-8.296
				C144.785,69.689,155.069,65.029,165.296,60.762z"/>
			<path opacity="0.54" fill="#87A49F" enable-background="new    " d="M165.296,60.762l28.728-12.781
				c-0.409-0.199-0.759-0.369-1.052-0.512c-6.703,0.905-13.927,2.861-16.885,4.031c-10.708,4.227-55.817,28.307-55.817,28.307
				l-2.683,2.18l18.648-8.296C144.785,69.689,155.069,65.029,165.296,60.762z"/>
			<path fill="#94AFA9" d="M195.079,47.512l2.06,1.426l0.628-0.435l1.617,0.72c3.86-0.396,7.251-0.096,9.912,0.316l-6.454-1.861
				l-7.472-0.492c-0.002,0-0.005,0-0.007,0c-0.783,0.075-1.584,0.172-2.391,0.281c0.293,0.143,0.644,0.313,1.052,0.512
				L195.079,47.512z"/>
			<path opacity="0.64" fill="#87A49F" enable-background="new    " d="M195.079,47.512l2.06,1.426l0.628-0.435l1.617,0.72
				c3.86-0.396,7.251-0.096,9.912,0.316l-6.454-1.861l-7.472-0.492c-0.002,0-0.005,0-0.007,0c-0.783,0.075-1.584,0.172-2.391,0.281
				c0.293,0.143,0.644,0.313,1.052,0.512L195.079,47.512z"/>
			<path opacity="0.54" fill="#87A49F" enable-background="new    " d="M195.079,47.512l2.06,1.426l0.628-0.435l1.617,0.72
				c3.86-0.396,7.251-0.096,9.912,0.316l-6.454-1.861l-7.472-0.492c-0.002,0-0.005,0-0.007,0c-0.783,0.075-1.584,0.172-2.391,0.281
				c0.293,0.143,0.644,0.313,1.052,0.512L195.079,47.512z"/>
			<polygon fill="#87A49F" points="277.863,84.139 199.384,49.224 197.767,48.504 197.139,48.938 195.079,47.512 194.024,47.981 
				165.296,60.762 136.235,73.691 117.587,81.987 113.241,83.921 116.326,83.012 117.691,82.61 124.042,80.739 115.483,85.912 
				131.555,79.638 120.343,88.449 137.535,81.473 128.565,90.284 142.393,83.921 141.205,89.365 137.572,92.137 140.93,90.626 
				140.524,92.487 148.082,87.409 159.297,82.364 159.282,93.244 177.845,77.085 191.77,95.5 197.654,73.06 214.149,93.244 
				214.149,75.148 248.629,93.244 218.706,70.896 252.32,93.479 250.453,84.913 264.281,91.276 255.311,82.465 272.503,89.441 
				261.291,80.63 262.723,81.189 273.745,85.492 277.361,86.904 274.95,85.446 268.804,81.731 277.792,84.379 279.604,84.913 			"/>
			</g>
		</g>
	</g>
	<g id="citybcg_1_">
		<polygon fill="none" points="700.52,183.92 700.52,183.309 700.52,182.949 700.52,181.331 700.52,181.009 700.52,179.234 
			693.625,179.234 693.625,180.76 693.625,181.632 700.52,184.653 	"/>
		<path fill="none" d="M382.692,227.542v-13.22c-0.018,0.001-0.032,0-0.044,0.001v13.219H382.692z"/>
		<polygon fill="none" points="700.85,171.869 693.625,175.877 693.625,176.123 706.034,171.869 	"/>
		<path fill="none" d="M287.118,199.435c3.742,0,2.201-1.145-2.198-0.741c-4.401,0.403-1.979-1.29-4.178-1.038
			c-0.144,0.018-0.267,0.017-0.399,0.023l2.19,1.477C284.012,199.306,285.663,199.435,287.118,199.435z"/>
		<path fill="#D1DBBD" d="M746.868,159.71l1.097,0.737l-21.13,14.606l-10.853-5.02c-0.016-0.277-0.076-0.535-0.195-0.771
			l-1.592-12.308c0.089-0.073,0.146-0.18,0.146-0.301c0-0.065-0.021-0.122-0.04-0.176l-0.383-2.934l-0.396,2.934
			c-0.024,0.053-0.045,0.11-0.045,0.17c0,0.152,0.095,0.28,0.225,0.349l-1.657,12.258c-0.098,0.191-0.146,0.398-0.18,0.614
			l-4.352,1.491c-0.401-1.213-2.341-2.999-1.743-2.048c0.854,1.347,0.682,1.989,0.182,2.281l-19.289-8.925
			c-0.009-0.276-0.077-0.535-0.192-0.772l-1.592-12.307c0.087-0.075,0.146-0.182,0.146-0.301c0-0.066-0.021-0.122-0.045-0.175
			l-0.387-2.934l-0.396,2.934c-0.028,0.054-0.044,0.108-0.044,0.172c0,0.151,0.089,0.278,0.22,0.348l-1.658,12.258
			c-0.098,0.19-0.146,0.399-0.18,0.615l-25.871,8.869c-0.61-0.013-1.254-0.389-1.487-1.792c-0.159-0.944-0.521,1.375,0.17,2.246
			l-0.123,0.044h0.21c0,0,0.005,0,0.007,0h15.754v1.774v0.321v1.62v0.36v0.611v1.047v3.156v1.056v0.109l-10.539,3.581v-8.426H640.89
			h-19.577v-7.952h-17.745H585.82v24.954h-2.318c-0.721-0.526-0.38-2.149-3.468-2.675c-3.704-0.634-4.231-1.538-4.938-2.154
			c-0.708-0.615,1.77,0.098-0.708-1.642c-2.469-1.741-2.985-0.475-5.814-1.661c-0.729-0.307,0.271-2.288-2.077-3.782
			c-1.949-1.246-7.086-2.004-9.438-2.541c-5.681-1.303-11.525,0.802-12.817,0.551c-2.475-0.474-6.883,0.476-6.883,0.95
			c0,0.473-3.354-0.712-3.354,0.08c0,0.791-1.407,1.027-1.407,1.027l-2.477,0.553c0,0-3.354,1.186-1.062,1.186
			c2.304,0-2.998,0.159-2.998,1.58c0,1.425-2.291-0.314-4.059,0.238c-1.758,0.553,0.707,0.871-1.229,1.267
			c-1.938,0.396-4.646,1.737-2.504,2.767c2.147,1.028-2.778,2.846-4.371,3.082c-0.979,0.146-3.14,0.708-4.428,1.177h-4.729v-0.183
			h-25.315H455.21v-20.105h-18.655H417.9v9.975h-17.46h-17.75v12.225c-0.02-0.002-0.03-0.002-0.045-0.004v-4.36h-5.064
			c-1.397-0.504-1.678-2.748-3.586-2.748c-1.979,0-2.639,1.908-5.275,2.034c-0.368,0.017-0.621,0.048-0.8,0.08
			c0.247-0.197,0.48-0.65,0.138-1.604c-0.879-2.413,5.5-4.07,0.878-5.084c-4.619-1.018-5.278-2.474-6.161-3.463
			c-0.879-0.99,2.202,0.157-0.879-2.639c-3.08-2.801-3.729-0.766-7.252-2.673c-0.916-0.494,0.328-3.68-2.594-6.082
			c-2.436-2.002-8.839-3.225-11.761-4.087c-7.086-2.095-14.386,1.288-16.004,0.888c-3.066-0.764-8.574,0.764-8.574,1.525
			s-4.18-1.146-4.18,0.128c0,1.271-1.757,1.651-1.757,1.651l-3.079,0.89c0,0-4.175,1.907-1.32,1.907c2.863,0-3.737,0.255-3.737,2.541
			c0,2.291-2.858-0.507-5.062,0.382c-2.192,0.89,0.882,1.4-1.536,2.035c-2.42,0.636-5.8,2.796-3.12,4.452
			c2.681,1.653-6.336,1.145-3.038,1.524c3.297,0.381,7.693,1.906,9.896,1.906c2.198,0,1.764,1.653,0,1.653
			c-1.757,0-6.158-1.272-7.917,0c-1.761,1.272-2.418-0.508-4.398-0.127c-1.981,0.381-7.917,2.543-6.599,2.924
			c1.32,0.381,0.22,0,1.538,1.65c1.323,1.658,0.221,1.401-3.294,1.147c-1.982-0.143-3.334,0.439-3.709,1.226l-31.84-21.477
			l-46.55,31.396v-1.33h-31.23c1.98-2.066,5.818-5.631,5.818-5.631h6.781c0,0-0.055-2.275,0.708-2.945
			c2.983-0.028,2.483-4.987,2.309-3.296c-0.189,1.813-1.884,1.007-3.392,1.007c-1.058,0-9.253-0.697-14.505-1.801
			c-2.236-0.468-3.941-0.52-4.332-1.421c-1.32-3.021-4.58-16.312-4.58-16.312h-2.104c0,0-3.908,16.072-4.304,16.403
			c-2.77,2.318-19.414,3.562-20.424,3.317c-0.479-0.118-0.966,0.263-1.389,0.048c-0.167-0.084-0.517-0.468-0.794-0.772
			c-0.107-0.11-0.214-0.222-0.29-0.3c-0.061-0.061-0.101-0.102-0.104-0.101c-0.332,0.179,0.836,2.354,1.968,3.207
			c0.283,0.215,1.091-0.073,1.299,0.264c0.488,0.789,0.199,2.299,0.199,2.299l6.781,0.201l5.743,5.831h-9.57
			c-0.771-2.391-2.796-2.899-4.566-3.277c-1.777-0.386-2.036-2.8-4.32-2.8c-2.289,0-3.051,1.907-6.099,2.033
			c-0.425,0.017-0.715,0.047-0.922,0.079c0.288-0.197,0.559-0.651,0.158-1.605c-1.017-2.412,6.356-4.067,1.017-5.084
			c-5.338-1.016-6.101-2.471-7.119-3.463c-1.02-0.99,2.543,0.157-1.02-2.639c-3.556-2.801-4.308-0.764-8.381-2.673
			c-1.057-0.494,0.379-3.68-2.999-6.081c-2.814-2.002-10.216-3.225-13.592-4.086c-8.19-2.096-16.629,1.287-18.496,0.887
			c-3.552-0.764-9.915,0.765-9.915,1.525c0,0.761-4.829-1.144-4.829,0.129c0,1.271-2.027,1.651-2.027,1.651l-3.563,0.89
			c0,0-4.827,1.906-1.526,1.906c3.311,0-4.319,0.256-4.319,2.542c0,2.289-3.305-0.507-5.851,0.382
			c-2.535,0.89,1.021,1.399-1.775,2.035c-1.151,0.262-2.486,0.784-3.448,1.421H-0.828v128.87H0v634.176h862.312L864,159.71H746.868
			L746.868,159.71z M693.625,175.877l7.225-4.008h5.188l-12.409,4.253L693.625,175.877L693.625,175.877z M693.625,180.76v-1.526
			h6.895v1.775v0.321v1.619v0.359v0.612v0.732l-6.895-3.021V180.76z M382.692,214.322v13.22h-0.044v-13.219
			C382.66,214.322,382.675,214.323,382.692,214.322z M280.742,197.656c2.199-0.252-0.223,1.441,4.178,1.038
			c4.399-0.403,5.94,0.741,2.198,0.741c-1.455,0-3.105-0.129-4.585-0.28l-2.19-1.477
			C280.475,197.672,280.598,197.674,280.742,197.656z"/>
		<path fill="#D1DBBD" d="M124.576,190.853c-0.002-0.001-0.004-0.004-0.006-0.006c0.046,0.048,0.149,0.159,0.235,0.248
			C124.741,191.027,124.659,190.941,124.576,190.853z"/>
		<path fill="#D1DBBD" d="M124.569,190.846c-0.021-0.022-0.034-0.036-0.02-0.02C124.555,190.832,124.562,190.84,124.569,190.846z"/>
		<path fill="#D1DBBD" d="M124.916,191.214c-0.02-0.021-0.061-0.062-0.111-0.118C124.881,191.176,124.938,191.236,124.916,191.214z"
			/>
	</g>
<g id="foreground_1_">
	<rect id="foreground" x="12.5" y="248.469" fill="#C3D895" width="839.069" height="663.105"/>
	<g>
		<g>
			
				<line fill="none" stroke="#9AB277" stroke-width="4" stroke-miterlimit="10" x1="20.359" y1="484.603" x2="26.359" y2="484.603"/>
			
				<line fill="none" stroke="#9AB277" stroke-width="4" stroke-miterlimit="10" stroke-dasharray="12.0666,12.0666" x1="38.425" y1="484.603" x2="828.785" y2="484.603"/>
			
				<line fill="none" stroke="#9AB277" stroke-width="4" stroke-miterlimit="10" x1="834.818" y1="484.603" x2="840.818" y2="484.603"/>
		</g>
	</g>
	<g>
		<g>
			
				<line fill="none" stroke="#9AB277" stroke-width="4" stroke-miterlimit="10" x1="20.359" y1="280.222" x2="26.359" y2="280.222"/>
			
				<line fill="none" stroke="#9AB277" stroke-width="4" stroke-miterlimit="10" stroke-dasharray="12.0666,12.0666" x1="38.425" y1="280.222" x2="828.785" y2="280.222"/>
			
				<line fill="none" stroke="#9AB277" stroke-width="4" stroke-miterlimit="10" x1="834.818" y1="280.222" x2="840.818" y2="280.222"/>
		</g>
	</g>
	<g>
		<g>
			
				<line fill="none" stroke="#9AB277" stroke-width="4" stroke-miterlimit="10" x1="20.359" y1="683.025" x2="26.359" y2="683.025"/>
			
				<line fill="none" stroke="#9AB277" stroke-width="4" stroke-miterlimit="10" stroke-dasharray="12.0666,12.0666" x1="38.425" y1="683.025" x2="828.785" y2="683.025"/>
			
				<line fill="none" stroke="#9AB277" stroke-width="4" stroke-miterlimit="10" x1="834.818" y1="683.025" x2="840.818" y2="683.025"/>
		</g>
	</g>
	<g>
		<g>
			
				<line fill="none" stroke="#9AB277" stroke-width="4" stroke-miterlimit="10" x1="20.359" y1="881.443" x2="26.359" y2="881.443"/>
			
				<line fill="none" stroke="#9AB277" stroke-width="4" stroke-miterlimit="10" stroke-dasharray="12.0666,12.0666" x1="38.425" y1="881.443" x2="828.785" y2="881.443"/>
			
				<line fill="none" stroke="#9AB277" stroke-width="4" stroke-miterlimit="10" x1="834.818" y1="881.443" x2="840.818" y2="881.443"/>
		</g>
	</g>
</g>
<g id="footnote_1_">
	
		<text id="source-text_1_" transform="matrix(1 0 0 1 232.0527 932.7402)" fill="#FFFFFF" font-family="'Futura-CondensedMedium'" font-size="8">Source: National Census of Manufacturing Establishments of Nepal 2011/2012, Central Bureau of Statistics, Government of Nepal | cbs.gov.np </text>
</g>
<g id="refractory">
	<g id="refractory-logo">
		<path fill="#EDE8E8" d="M184.425,387.306c0,43.809-34.782,79.318-77.692,79.318c-42.911,0-77.698-35.509-77.698-79.318
			c0-43.808,34.787-79.316,77.698-79.316C149.643,307.988,184.425,343.498,184.425,387.306z"/>
		<g id="Refractory_1_">
			<path fill="#D0D2D3" d="M101.042,332.269c0,0,1.483-3.337,4.423-4.143c0,0-0.163-6.67,6.463-5.188c0,0,2.66-3.321,6.49-1.146
				c0,0,1.98-5.014,8.271-1.477c0,0,0.858-4.047,5.021-2.801c4.162,1.247,1.806,5.646-0.021,6.363c0,0,2.146,2.782-0.604,3.896
				c0,0,2.062,1.626,0.729,3.166c-1.334,1.538-3.844,0.318-5.027-0.75c0,0-0.135,2.292-2.756,1.674c0,0-2.056,2.731-4.75,0.397
				c0,0-0.93,0.958-3.021-0.034c0,0-0.188,1.872-1.903,2.305c-1.722,0.432-4.305-0.572-4.791-1.956
				c-0.296-0.842-3.382-0.773-5.755-0.59C102.278,332.104,101.042,332.269,101.042,332.269z"/>
			<g>
				<polygon fill="#ED3029" points="93.531,448.78 110.654,448.78 106.836,336.008 97.347,336.008 				"/>
				<polygon fill="#D62727" points="97.201,335.209 106.836,335.209 106.96,338.431 97.201,338.431 				"/>
			</g>
			<g>
				<polygon fill="#1E4D6A" points="94.006,436.482 89.502,436.482 89.502,441.704 79.597,441.704 79.597,452.674 124.686,452.674 
					124.686,444.024 124.686,436.482 120.182,436.482 120.182,430.029 113.822,430.029 113.822,436.482 110.274,436.482 
					110.274,430.029 103.916,430.029 103.916,436.482 100.365,436.482 100.365,430.029 94.006,430.029 				"/>
				<path fill="#8DD7F7" d="M93.841,450.688c1.288,0,2.34-1.052,2.34-2.34c0-1.289-1.051-2.338-2.34-2.338
					c-1.287,0-2.337,1.051-2.337,2.338C91.504,449.636,92.554,450.688,93.841,450.688z"/>
				<path fill="#8DD7F7" d="M101.83,450.688c1.288,0,2.345-1.052,2.345-2.34c0-1.289-1.057-2.338-2.345-2.338
					c-1.28,0-2.337,1.051-2.337,2.338C99.493,449.636,100.542,450.688,101.83,450.688z"/>
				<path fill="#8DD7F7" d="M109.82,450.688c1.288,0,2.337-1.052,2.337-2.34c0-1.289-1.05-2.338-2.337-2.338
					c-1.287,0-2.339,1.051-2.339,2.338C107.481,449.636,108.533,450.688,109.82,450.688z"/>
				<path fill="#8DD7F7" d="M117.809,450.688c1.289,0,2.34-1.052,2.34-2.34c0-1.289-1.051-2.338-2.34-2.338
					c-1.286,0-2.337,1.051-2.337,2.338C115.471,449.636,116.521,450.688,117.809,450.688z"/>
				<rect x="83.502" y="430.029" fill="#1E4D6A" width="6.29" height="12.778"/>
				<rect x="79.436" y="436.482" fill="#1E4D6A" width="4.505" height="16.188"/>
				<path fill="#8DD7F7" d="M85.852,450.688c1.287,0,2.338-1.052,2.338-2.34c0-1.289-1.051-2.338-2.338-2.338
					s-2.337,1.051-2.337,2.338C83.515,449.636,84.565,450.688,85.852,450.688z"/>
			</g>
		</g>
	</g>
	<g id="refractory-head">
		<g>
			<path fill="#FF6138" d="M407.296,334.342c0,3.915-5.373,7.089-12,7.089H173.285c-6.627,0-12-3.174-12-7.089v-23.938
				c0-3.915,5.373-7.089,12-7.089h222.011c6.627,0,12,3.174,12,7.089V334.342L407.296,334.342z"/>
			<polygon fill="#FF6138" points="161.284,335.504 161.4,365.945 180.814,339.078 			"/>
		</g>
		<text transform="matrix(1 0 0 1 201.2031 329.9209)" fill="#FCFFF5" font-family="'Helvetica-Bold'" font-size="21">01. REFRACTORY</text>
	</g>
	<g id="refractory-hover">
		<path fill="#FF6138" d="M407.296,409.082c0,5.111-5.119,9.254-11.433,9.254H208.006c-6.314,0-11.432-4.143-11.432-9.254v-62.829
			c0-5.112,5.119-9.254,11.432-9.254h187.857c6.314,0,11.433,4.143,11.433,9.254V409.082z"/>
		<text transform="matrix(1 0 0 1 216.2832 358.7021)" fill="#FCFFF5" font-family="'Futura-CondensedMedium'" font-size="17.0721">No. of factories: 606</text>
		<text transform="matrix(1 0 0 1 216.2832 379.1885)" fill="#FCFFF5" font-family="'Futura-CondensedMedium'" font-size="17.0721">No. of employees: 76672</text>
		<text transform="matrix(1 0 0 1 216.2832 399.6748)" fill="#FCFFF5" font-family="'Futura-CondensedMedium'" font-size="17.0721">Total value added: Rs 6 Million</text>
	</g>
</g>
<g id="grainmill">
	<g id="grainmill-logo">
		<path fill="#EDE8E8" d="M615.977,387.161c0,43.814-34.781,79.321-77.691,79.321c-42.915,0-77.701-35.511-77.701-79.321
			c0-43.812,34.787-79.314,77.701-79.314C581.194,307.839,615.977,343.35,615.977,387.161z"/>
		<g>
			<g>
				<path fill="none" d="M551.7,433.907c-0.074,0.072-0.139,0.146-0.215,0.216C551.56,434.046,551.636,433.979,551.7,433.907z"/>
				<path fill="#1E4D6A" d="M533.131,447.344c-10.932,0-19.854-4.135-20.608-9.352c-0.021,0.186-0.072,0.354-0.072,0.534
					c0,5.552,9.263,10.054,20.688,10.054c11.42,0,20.68-4.502,20.68-10.054c0-0.184-0.05-0.354-0.074-0.534
					C552.984,443.217,544.057,447.344,533.131,447.344z"/>
				<path fill="#ED3029" d="M553.715,430.427c-0.232,1.233-0.938,2.403-2.021,3.479c-0.062,0.07-0.143,0.14-0.216,0.214
					c-3.442,3.229-10.362,5.438-18.356,5.438c-10.44,0-19.062-3.771-20.466-8.658c-0.008-0.035-0.036-0.065-0.043-0.104
					c-0.104,0.406-0.18,1.562-0.18,1.979c0,0.396,0,4.146,0,4.519c0,0.237,0.043,0.479,0.074,0.709
					c0.023-0.229,0.042-0.472,0.098-0.701c1.264,4.969,9.952,8.812,20.517,8.812c10.562,0,19.246-3.852,20.514-8.812
					c0.062,0.229,0.063,0.473,0.101,0.701c0.034-0.229,0.073-0.472,0.073-0.709c0-0.361,0-1.855,0-2.26c0-0.369,0-1.863,0-2.259
					c0-0.42,0.018-1.959-0.084-2.363C553.721,430.415,553.715,430.419,553.715,430.427z"/>
				<path fill="#ED3029" d="M533.131,446.11c-10.562,0-19.254-3.852-20.518-8.814c-0.057,0.229-0.066,0.475-0.099,0.705
					c0.755,5.217,9.684,9.35,20.607,9.35c10.934,0,19.854-4.131,20.604-9.35c-0.025-0.23-0.038-0.474-0.103-0.705
					C552.376,442.262,543.687,446.11,533.131,446.11z"/>
				<path fill="#1E4D6A" d="M517.273,435.392c3.788,1.584,9.422,4.166,15.854,4.166c4.35,0,15.91-3.832,17.375-4.645
					c0.385-0.209,0.693-0.498,0.98-0.802c0.078-0.063,0.142-0.143,0.216-0.215c0.911-1.069,1.439-2.49,2.014-3.479
					c0.062-0.308,0.101-0.607,0.101-0.924c0-0.183-0.049-0.354-0.073-0.527c-0.749,5.217-9.679,9.34-20.604,9.34
					c-10.937,0-19.857-4.123-20.613-9.34c-0.021,0.176-0.072,0.354-0.072,0.527c0,0.479,0.092,0.938,0.22,1.396
					C513.195,432.794,514.891,434.396,517.273,435.392z"/>
				<path fill="#1E4D6A" d="M533.131,439.558c7.993,0,14.913-2.209,18.355-5.438c-0.287,0.303-0.604,0.592-0.98,0.801
					C549.039,435.726,537.473,439.558,533.131,439.558z"/>
				<path fill="#1E4D6A" d="M533.131,439.558c-6.437,0-12.062-2.584-15.854-4.166c-2.384-0.996-4.078-2.604-4.609-4.492
					C514.069,435.79,522.684,439.558,533.131,439.558z"/>
				<path fill="#1E4D6A" d="M553.715,430.427c-0.572,0.983-1.104,2.403-2.021,3.479C552.777,432.837,553.48,431.667,553.715,430.427
					z"/>
				<path fill="#ED3029" d="M533.131,437.079c10.562,0,19.245-3.849,20.512-8.812c0.061,0.229,0.063,0.467,0.1,0.703
					c0.036-0.236,0.074-0.479,0.074-0.713c0-0.369,0-1.861,0-2.264c0-0.369,0-1.855,0-2.261c0-0.418-0.068-1.256-0.174-1.662
					c-0.781,1.359-1.502,1.822-3.239,2.775c-3.7,2.039-10.083,3.783-17.271,3.783c-6.438,0-11.828-1.312-15.616-2.896
					c-1.395-0.576-2.296-1.229-3.138-1.955c-0.627-0.541-1.552-1.305-1.765-2.139c-0.104,0.408-0.17,1.67-0.17,2.09
					c0,0.396,0,4.146,0,4.517c0,0.243,0.042,0.479,0.071,0.721c0.025-0.236,0.042-0.48,0.099-0.703
					C513.876,433.231,522.566,437.079,533.131,437.079z"/>
				<path fill="#ED3029" d="M533.131,438.31c10.933,0,19.854-4.123,20.604-9.338c-0.026-0.236-0.038-0.48-0.1-0.703
					c-1.267,4.965-9.949,8.812-20.513,8.812c-10.562,0-19.253-3.849-20.518-8.812c-0.056,0.229-0.064,0.467-0.098,0.703
					C513.271,434.187,522.198,438.31,533.131,438.31z"/>
				<path fill="#ED3029" stroke="#1E4D6A" stroke-miterlimit="10" d="M532.82,428.447c11.626,0,21.05-3.645,21.05-8.145
					c0-4.498-9.424-8.146-21.05-8.146s-20.377,3.646-20.377,8.146C512.443,424.802,521.194,428.447,532.82,428.447z
					 M533.521,418.332c2.622,0,4.74,0.938,4.74,2.086c0,1.15-2.119,2.084-4.74,2.084c-2.618,0-4.739-0.935-4.739-2.084
					C528.779,419.266,530.901,418.332,533.521,418.332z"/>
				<path fill="#ED3029" stroke="#1E4D6A" stroke-width="0.5" stroke-miterlimit="10" d="M533.521,422.505
					c2.622,0,4.74-0.937,4.74-2.086c0-1.146-2.119-2.084-4.74-2.084c-2.618,0-4.739,0.938-4.739,2.084
					C528.779,421.57,530.901,422.505,533.521,422.505z"/>
			</g>
			<g>
				<rect x="572.153" y="325.735" fill="#ED3029" width="3.225" height="119.308"/>
				<ellipse fill="#1E4D6A" cx="573.766" cy="356.566" rx="0.755" ry="2.757"/>
				<ellipse fill="#1E4D6A" cx="573.766" cy="368.502" rx="0.755" ry="2.758"/>
				<ellipse fill="#1E4D6A" cx="573.766" cy="380.436" rx="0.755" ry="2.758"/>
			</g>
			<g>
				<g>
					<path fill="#1E4D6A" d="M537.607,410.032"/>
					<polyline fill="#1E4D6A" points="528.082,406.752 512.938,358.222 552.836,358.222 537.607,407.041 					"/>
					<polygon fill="#183E51" points="512.938,358.222 518.365,349.804 547.87,349.804 552.836,358.222 					"/>
				</g>
				<path fill="none" stroke="#ED3029" stroke-width="4" stroke-miterlimit="10" d="M525.936,399.776
					c0.021,0.086,0.017,0.177,0.036,0.267l1.067,3.938c0.53,1.971,2.361,3.295,4.54,3.529"/>
				<path fill="none" stroke="#ED3029" stroke-width="4" stroke-miterlimit="10" d="M539.727,399.776
					c-0.021,0.086-0.021,0.177-0.038,0.267l-1.071,3.938c-0.53,1.971-2.355,3.295-4.54,3.529"/>
			</g>
			<rect x="501.181" y="336.998" fill="#ED3029" width="71.438" height="1.104"/>
			<g>
				<ellipse fill="#183E51" cx="521.402" cy="359.145" rx="1.52" ry="0.923"/>
				
					<line fill="none" stroke="#ED3029" stroke-width="2" stroke-miterlimit="10" x1="513.788" y1="338.201" x2="521.492" y2="359.321"/>
			</g>
			<g>
				<ellipse fill="#183E51" cx="544.28" cy="359.145" rx="1.521" ry="0.923"/>
				
					<line fill="none" stroke="#ED3029" stroke-width="2" stroke-miterlimit="10" x1="551.892" y1="338.201" x2="544.189" y2="359.321"/>
			</g>
		</g>
	</g>
	<g id="grainmill-hover">
		<path fill="#FF6138" d="M838.429,409.057c0,5.215-5.201,9.443-11.62,9.443H635.852c-6.418,0-11.621-4.228-11.621-9.443v-64.11
			c0-5.215,5.203-9.442,11.621-9.442h190.955c6.42,0,11.621,4.228,11.621,9.442L838.429,409.057L838.429,409.057z"/>
		<text transform="matrix(1 0 0 1 645.875 358.7021)" fill="#FCFFF5" font-family="'Futura-CondensedMedium'" font-size="17.0721">No. of factories: 575</text>
		<text transform="matrix(1 0 0 1 645.875 379.1885)" fill="#FCFFF5" font-family="'Futura-CondensedMedium'" font-size="17.0721">No. of employees: 8745</text>
		<text transform="matrix(1 0 0 1 645.875 399.6748)" fill="#FCFFF5" font-family="'Futura-CondensedMedium'" font-size="17.0721">Total value added: Rs 5 Million</text>
	</g>
	<g id="grainmill-head">
		<g>
			<path fill="#FF6138" d="M838.429,334.342c0,3.915-5.372,7.089-12,7.089h-222c-6.627,0-12-3.174-12-7.089v-23.938
				c0-3.915,5.373-7.089,12-7.089h222c6.628,0,12,3.174,12,7.089V334.342z"/>
			<polygon fill="#FF6138" points="592.429,335.504 592.545,365.945 611.958,339.078 			"/>
		</g>
		<text transform="matrix(1 0 0 1 630.2305 329.9209)" fill="#FCFFF5" font-family="'Helvetica-Bold'" font-size="21">02. GRAIN MILL</text>
	</g>
</g>
<g id="furniture">
	<g id="furniture-logo">
		<path fill="#EDE8E8" d="M186.841,584.826c0,43.812-35.489,79.312-79.272,79.312s-79.273-35.51-79.273-79.312
			c0-43.81,35.492-79.315,79.273-79.315C151.352,505.507,186.841,541.019,186.841,584.826z"/>
		<g>
			<g id="furniture-chair-2_1_">
				<polygon fill="#1E4D6A" points="135.508,597.637 130.109,600.126 166.102,600.126 161.107,597.637 				"/>
				<rect x="130.109" y="600.126" fill="#1E4D6A" width="35.897" height="2.061"/>
				<path fill="#1E4D6A" d="M138.423,597.53c0.083,0.894-0.604,1.671-1.542,1.729l0,0c-0.935,0.062-1.764-0.604-1.847-1.501
					l-2.363-24.979c-0.083-0.896,0.608-1.679,1.542-1.736l0,0c0.938-0.063,1.764,0.604,1.847,1.502L138.423,597.53z"/>
				<path fill="#1E4D6A" d="M161.233,597.775c-0.102,0.896-0.938,1.56-1.876,1.479l0,0c-0.934-0.08-1.604-0.865-1.506-1.759
					l2.858-24.954c0.104-0.896,0.938-1.552,1.877-1.479l0,0c0.935,0.078,1.608,0.866,1.507,1.767L161.233,597.775z"/>
				<polygon fill="#1E4D6A" points="136.882,572.93 159.701,572.93 160.992,574.388 160.992,577.906 135.762,577.906 
					135.762,574.131 				"/>
				<rect x="136.568" y="581.422" fill="#1E4D6A" width="23.438" height="4.464"/>
				<polygon fill="#1E4D6A" points="129.742,626.642 128.217,626.413 133.282,601.657 134.806,601.887 				"/>
				<polygon fill="#1E4D6A" points="167.239,626.332 165.708,626.517 161.656,601.803 163.189,601.617 				"/>
				<polygon fill="#1E4D6A" points="161.369,623.199 159.838,623.384 156.3,601.803 157.833,601.617 				"/>
				<polygon fill="#1E4D6A" points="135.84,623.531 134.316,623.302 138.757,601.582 140.282,601.812 				"/>
				<rect x="136.859" y="600.079" fill="#FFFFFF" width="21.93" height="0.245"/>
				
					<line fill="none" stroke="#424242" stroke-width="2" stroke-miterlimit="10" x1="130.783" y1="618.163" x2="136.859" y2="614.495"/>
				
					<line fill="none" stroke="#424242" stroke-width="2" stroke-miterlimit="10" x1="164.489" y1="617.199" x2="159.593" y2="614.647"/>
			</g>
			<g>
				<path fill="#1E4D6A" d="M128.322,585.373c0-5.875-4.667-10.639-10.431-10.639c-1.832,0-4.854,1.139-6.349,1.979
					c0.956-12.238,3.354-26.791,3.88-31.175c0.987-8.23-7.243-11.192-7.243-11.192s-27.324,0-38.848,0
					c-11.521,0-11.193,10.207-11.193,10.207l5.479,32.491c-1.778-1.443-4.681-2.312-7.128-2.312c-5.758,0-10.428,4.77-10.428,10.646
					c0,3.314,0.84,6.284,3.174,8.229h-0.099v28.625c0,0,1.405,2.32,2.283,2.32s9.658,0,9.658,0s1.655-0.806,2.414-2.32h47.328
					c0,0,1.312,2.32,2.14,2.32s9.054,0,9.054,0s1.923-0.986,2.472-2.854c0.551-1.854,0.012-27.792,0-28.086
					C126.826,591.664,128.322,588.698,128.322,585.373z"/>
				<path fill="none" stroke="#FFFFFF" stroke-width="0.5" stroke-miterlimit="10" d="M110.928,577.045c0,0-8.411,7.684,0,16.239"/>
				<path fill="none" stroke="#FFFFFF" stroke-width="0.5" stroke-miterlimit="10" d="M63.423,577.045c0,0,8.41,7.684,0,16.239"/>
				<rect x="73.443" y="586.258" fill="#FFFFFF" width="27.982" height="0.42"/>
				<rect x="73.443" y="596.146" fill="#FFFFFF" width="27.49" height="0.309"/>
				<rect x="62.901" y="600.083" fill="#FFFFFF" width="0.365" height="17.667"/>
				<rect x="109.997" y="600.083" fill="#FFFFFF" width="0.458" height="17.667"/>
				<ellipse fill="none" stroke="#FFFFFF" stroke-miterlimit="10" cx="80.147" cy="550.482" rx="1.151" ry="1.207"/>
				<ellipse fill="none" stroke="#FFFFFF" stroke-miterlimit="10" cx="72.306" cy="557.015" rx="1.152" ry="1.207"/>
				<ellipse fill="none" stroke="#FFFFFF" stroke-miterlimit="10" cx="86.678" cy="557.015" rx="1.152" ry="1.207"/>
				<ellipse fill="none" stroke="#FFFFFF" stroke-miterlimit="10" cx="94.518" cy="550.482" rx="1.153" ry="1.207"/>
				<ellipse fill="none" stroke="#FFFFFF" stroke-miterlimit="10" cx="100.398" cy="557.015" rx="1.151" ry="1.207"/>
			</g>
		</g>
	</g>
	<g id="furniture-head">
		<g>
			<path fill="#FF6138" d="M407.858,537.731c0,3.915-5.373,7.089-12,7.089H173.847c-6.627,0-12-3.174-12-7.089v-23.938
				c0-3.915,5.373-7.089,12-7.089h222.011c6.626,0,12,3.174,12,7.089L407.858,537.731L407.858,537.731z"/>
			<polygon fill="#FF6138" points="161.847,538.894 161.963,569.334 181.377,542.467 			"/>
		</g>
		<text transform="matrix(1 0 0 1 203.6172 533.3066)" fill="#FCFFF5" font-family="'Helvetica-Bold'" font-size="21">03. FURNITURE</text>
	</g>
	<g id="furniture-hover">
		<path fill="#FF6138" d="M407.858,620.237c0,5.668-5.083,10.263-11.353,10.263H209.955c-6.27,0-11.353-4.595-11.353-10.263v-69.675
			c0-5.668,5.083-10.263,11.353-10.263h186.551c6.271,0,11.353,4.596,11.353,10.263V620.237L407.858,620.237z"/>
		<text transform="matrix(1 0 0 1 216.2832 561.0957)" fill="#FCFFF5" font-family="'Futura-CondensedMedium'" font-size="17.0721">No. of factories: 390</text>
		<text transform="matrix(1 0 0 1 216.2832 581.582)" fill="#FCFFF5" font-family="'Futura-CondensedMedium'" font-size="17.0721">No. of employees: 4790</text>
		<text transform="matrix(1 0 0 1 216.2832 602.0684)" fill="#FCFFF5" font-family="'Futura-CondensedMedium'" font-size="17.0721">Total value added: Rs 0.9 Million</text>
	</g>
</g>
<g id="plastic">
	<g id="plastic-logo">
		<path fill="#EDE8E8" d="M616.711,585.338c0,43.812-34.781,79.314-77.693,79.314s-77.7-35.51-77.7-79.314
			c0-43.807,34.788-79.312,77.7-79.312C581.928,506.025,616.711,541.532,616.711,585.338z"/>
		<g id="plastic_3_">
			<path fill="#ED322A" stroke="#1E4E6A" stroke-miterlimit="10" d="M529.9,565.507c0,0-4.76-15.062-8.725-15.062
				s-8.459,0-7.933,27.487c0.521,27.497,1.853,20.104,1.853,21.944c0,1.854,3.172,17.188,3.172,17.188s-2.379,2.899-0.264,3.175
				c2.112,0.264,28.287,3.172,29.873,2.906c1.588-0.271,15.854-2.388,16.125-6.354c0.264-3.966-1.578-7.957,0.271-9.808
				c1.854-1.854-1.592-30.116-1.592-30.116l-2.379-17.715c0,0,0.264-11.104-4.758-11.633c-5.025-0.529-8.197,17.186-8.197,17.979
				S542.59,568.679,529.9,565.507z"/>
			<path fill="none" stroke="#1E4E6A" stroke-miterlimit="10" d="M520.385,573.439l5.02-7.67c0,0-3.967-10.573-5.02-10.848
				c-1.062-0.265-2.115,18.518-1.062,18.518C520.385,573.439,520.385,573.439,520.385,573.439z"/>
			<path fill="none" stroke="#1E4E6A" stroke-miterlimit="10" d="M556.602,573.439l-5.287-4.494c0,0,1.062-14.809,3.703-15.592
				C557.658,552.562,556.602,573.439,556.602,573.439z"/>
			<path fill="#1E4E6A" stroke="#ED322A" d="M516.152,592.475c0,0,2.957,2.646,2.732,3.569c-0.222,0.927-0.385,7.931-1.361,7.8
				c-0.977-0.132,0.85-4.354,0-8.327C516.682,591.55,516.152,592.475,516.152,592.475z"/>
			<path fill="#1E4E6A" stroke="#ED322A" d="M560.703,586.447c0,0,1.449,20.701,0,22.947
				C559.248,611.644,560.703,586.447,560.703,586.447z"/>
			<path fill="#1E4E6A" stroke="#ED322A" stroke-width="0.25" d="M541.533,620.501c0,0,4.761,0.396,11.23-2.646
				c6.479-3.039,7.285-2.775,7.285-2.775l-6.623,3.702l-6.213,1.729L541.533,620.501z"/>
			<path fill="#1E4E6A" stroke="#ED322A" stroke-width="0.25" d="M527.555,619.838c0,0,2.084-0.688,3.967,0
				c1.883,0.695,4.857,0,4.857,0s-3.271,1.708-5.65,0.312C528.348,618.749,527.555,619.838,527.555,619.838z"/>
			<path fill="#1E4E6A" stroke="#ED322A" stroke-width="0.25" d="M518.898,615.074c0,0,2.309,4.354,5.979,4.354
				C528.555,619.438,519.266,621.019,518.898,615.074z"/>
			<path fill="#1E4E6A" d="M558.09,568.379c0,0,1.188,7.146,0.793,7.487C558.486,576.214,558.387,569.071,558.09,568.379z"/>
			<path fill="#1E4E6A" d="M556.811,554.402c0,0,1.676,4.658,1.279,6.731C557.693,563.229,556.811,554.402,556.811,554.402z"/>
			<path fill="#1E4E6A" d="M543.814,573.325c0,0,8.525-0.188,9.32,0.112C553.928,573.736,546.094,574.005,543.814,573.325z"/>
			<path fill="#1E4E6A" d="M550.061,563.386v3.52c0,0-0.688,3.163,0,3.219C550.754,570.167,550.061,563.386,550.061,563.386z"/>
			<path fill="#1E4E6A" d="M525.406,561.144c0,0,1.355,5.562,2.148,5.604c0.793,0.046,0.396,2.497,0.396,2.497
				S527.531,561.86,525.406,561.144z"/>
			<path fill="#1E4E6A" d="M519.334,553.334c0,0-1.822,2.158-1.812,2.952c0.021,0.793,0,3.966,0,3.966l0.902-4.76L519.334,553.334z"
				/>
			<path fill="#1E4E6A" d="M516.848,561.938c0,0-0.297,3.669-0.693,3.669C515.759,565.606,517.344,564.912,516.848,561.938z"/>
			<path fill="#1E4E6A" d="M533.008,570.114c0,0,5.649-0.3,6.84-0.867c1.188-0.568,6.742,0,6.742,0s-6.349,0.318-6.793,0.867
				C539.354,570.663,533.008,570.114,533.008,570.114z"/>
			<path fill="#1E4E6A" d="M518.43,571.456c0,0,0.18,4.036,3.795,5.624c1.221,0.534,2.135,0.094,4.504,0.06
				c9.387-0.132,12.824,0.938,14.543,1.062c1.719,0.131,7.357-1.861,9.104-2.318c1.731-0.458,6.584-0.229,6.438-2.131
				c-0.141-1.896-0.604-11.811-0.604-11.811l-0.66,11.33l-0.529,1.481c0,0-6.014,0.473-12.094,2.578
				c-1.795,0.624-3.521-0.008-4.082-0.086c-1.338-0.184,0.303-0.92-3.058-0.574c-4.771,0.488-11.528-0.736-12.229-0.322
				c-0.699,0.416-2.381-0.235-3.104-2.604C519.723,571.391,519.912,576.215,518.43,571.456z"/>
		</g>
	</g>
	<g id="plastic-head">
		<g>
			<path fill="#FF6138" d="M837.5,538.555c0,3.915-5.205,7.089-11.626,7.089h-215.08c-6.42,0-11.626-3.174-11.626-7.089v-23.938
				c0-3.914,5.206-7.088,11.626-7.088h215.08c6.421,0,11.626,3.174,11.626,7.088V538.555z"/>
			<polygon fill="#FF6138" points="599.168,539.717 599.28,570.157 618.088,543.289 			"/>
		</g>
		<text transform="matrix(1 0 0 1 631.9961 533.1362)" fill="#FCFFF5" font-family="'Helvetica-Bold'" font-size="21">04. PLASTIC</text>
	</g>
	<g id="plastic-hover">
		<path fill="#FF6138" d="M837.242,617.81c0,5.537-5.175,10.024-11.559,10.024H635.786c-6.382,0-11.556-4.488-11.556-10.024v-68.067
			c0-5.538,5.174-10.026,11.556-10.026h189.897c6.384,0,11.558,4.488,11.558,10.026L837.242,617.81L837.242,617.81z"/>
		<text transform="matrix(1 0 0 1 644.6631 558.9414)" fill="#FCFFF5" font-family="'Futura-CondensedMedium'" font-size="17.0721">No. of factories: 229</text>
		<text transform="matrix(1 0 0 1 644.6631 579.4277)" fill="#FCFFF5" font-family="'Futura-CondensedMedium'" font-size="17.0721">No. of employees: 6820</text>
		<text transform="matrix(1 0 0 1 644.6631 599.9141)" fill="#FCFFF5" font-family="'Futura-CondensedMedium'" font-size="17.0721">Total value added: Rs 3 Million</text>
	</g>
</g>
<g id="wood-planing">
	<g id="wood-logo">
		<path fill="#EDE8E8" d="M182.445,783.206c0,43.806-34.784,79.312-77.696,79.312c-42.912,0-77.698-35.518-77.698-79.313
			c0-43.807,34.785-79.312,77.698-79.312C147.66,703.891,182.445,739.398,182.445,783.206z"/>
		<g id="wood_3_">
			<g>
				<circle fill="#ED3029" stroke="#1E4D6A" cx="91.004" cy="745.23" r="3.237"/>
				<path fill="#ED3029" d="M89.12,747.994c0,0,0.104,0.368,0.104,0.874c-0.01,0.476-0.102,1.073-0.64,1.587
					c-0.096,0.09-0.316,0.364-0.398,0.586c-0.082,0.229-0.011,0.468,0.086,0.527c0.126,0.081,1.061-0.024,2.138-0.056
					c1.61-0.057,3.562-0.116,3.562-0.116s0.344-0.593-0.604-1.146c-0.048-0.021-0.178-0.173-0.241-0.297
					c-0.044-0.088-0.036-0.16-0.042-0.182c-0.175-0.702-0.162-1.605-0.054-1.859c0.079-0.182-0.454,0.334-1.248,0.529
					C91.031,748.636,90.043,748.507,89.12,747.994z"/>
				<path fill="none" stroke="#1E4D6A" d="M88.968,747.696c0,0,0.521,1.917-0.357,2.646c-0.895,0.729-0.417,1.256-0.417,1.256"/>
				<path fill="none" stroke="#1E4D6A" d="M93.186,747.696c0,0-0.521,1.917,0.359,2.646c0.894,0.729,0.417,1.256,0.417,1.256"/>
				<rect x="85.47" y="754.21" fill="#ED3029" stroke="#1E4D6A" width="39.159" height="1.67"/>
				<path fill="#ED3029" stroke="#140707" d="M102.759,748.604"/>
				<line fill="none" stroke="#1E4D6A" stroke-width="2" x1="101.118" y1="748.604" x2="103.07" y2="748.604"/>
				<path fill="#ED3029" stroke="#140707" d="M108.313,743.301c-4.38-1.733-6.729,5.312-6.729,5.312"/>
				<path fill="#ED3029" stroke="#1E4D6A" d="M107.828,743.785c4.379,1.744,5.553,5.411,7.048,3.39
					c1.495-2.02-0.642-4.483-1.602-6.812c-0.421-1.021,7.331-3.914,5.229-2.194c-0.593,0.485-1.427,1.504-1.31,2.589
					c0.18,1.651,1.592,3.455,1.718,3.751c0.842,1.962,1.087,3.521,1.087,3.521v1.062h-17.725"/>
				<polyline fill="#ED3029" stroke="#1E4D6A" points="108.001,744.002 111.786,737.317 109.359,736.016 99.556,749.089 
					101.274,749.089 				"/>
				<path fill="#ED3029" stroke="#140707" d="M107.38,743.301"/>
				<polygon fill="#ED3029" points="107.554,743.49 100.924,748.838 103.88,748.838 108.595,744.735 				"/>
				<path fill="#ED3029" stroke="#1E4D6A" d="M97.479,751.416l1.879-2.21h23.182c0,0,1.566-0.58,2.088,1.63
					c0.521,2.211,0,3.377,0,3.377H86.826v-2.537L97.479,751.416z"/>
			</g>
			<rect x="51.481" y="758.546" fill="#184054" width="106.533" height="5.739"/>
			<rect x="59.814" y="764.286" fill="#1E4D6A" width="7.016" height="59.414"/>
			<rect x="140.659" y="764.286" fill="#1E4D6A" width="7.015" height="59.414"/>
			<polygon fill="#184054" points="66.83,772.023 76.32,764.314 66.83,764.314 			"/>
			<polygon fill="#184054" points="140.822,772.023 131.332,764.314 140.822,764.314 			"/>
			
				<rect x="51.937" y="756.332" fill="none" stroke="#1E4D6A" stroke-width="0.5" stroke-miterlimit="10" width="105.753" height="2.214"/>
		</g>
	</g>
	<g id="wood-head">
		<g>
			<path fill="#FF6138" d="M407.083,733.006c0,3.915-5.374,7.088-12,7.088H173.06c-6.627,0-12-3.173-12-7.088v-23.938
				c0-3.914,5.373-7.088,12-7.088h222.023c6.627,0,12,3.174,12,7.088V733.006z"/>
			<polygon fill="#FF6138" points="161.06,734.168 161.176,764.606 180.591,737.74 			"/>
		</g>
		<text transform="matrix(1 0 0 1 201.9966 728.5859)" fill="#FCFFF5" font-family="'Helvetica-Bold'" font-size="21">05. Wood Planing</text>
	</g>
	<g id="wood-hover">
		<path fill="#FF6138" d="M408.076,813.514c0,5.626-5.138,10.187-11.476,10.187H208.049c-6.337,0-11.474-4.562-11.474-10.187v-69.16
			c0-5.625,5.137-10.186,11.474-10.186h188.552c6.338,0,11.476,4.561,11.476,10.186V813.514z"/>
		<text transform="matrix(1 0 0 1 216.064 757.3662)" fill="#FCFFF5" font-family="'Futura-CondensedMedium'" font-size="17.0721">No. of factories: 228</text>
		<text transform="matrix(1 0 0 1 216.064 777.8525)" fill="#FCFFF5" font-family="'Futura-CondensedMedium'" font-size="17.0721">No. of employees: 2712</text>
		<text transform="matrix(1 0 0 1 216.064 798.3389)" fill="#FCFFF5" font-family="'Futura-CondensedMedium'" font-size="17.0721">Total value added: Rs 0.6 Million</text>
	</g>
</g>
<g id="total">
	<path fill="#FF6138" d="M810.207,734.99c0,3.915-6.544,7.089-14.616,7.089h-270.41c-8.071,0-14.616-3.174-14.616-7.089v-23.938
		c0-3.914,6.545-7.088,14.616-7.088h270.41c8.072,0,14.616,3.174,14.616,7.088V734.99z"/>
	<path fill="#FF6138" d="M810.817,824.172c0,5.838-7.309,10.569-16.323,10.569H526.278c-9.016,0-16.324-4.731-16.324-10.569v-71.758
		c0-5.836,7.309-10.567,16.324-10.567h268.216c9.015,0,16.323,4.731,16.323,10.567V824.172z"/>
	<text transform="matrix(1 0 0 1 568.5547 729.7588)" fill="#FCFFF5" font-family="'Helvetica-Bold'" font-size="21">TOTAL NUMBERS</text>
	<text transform="matrix(1 0 0 1 562.9561 763.2217)"><tspan x="0" y="0" fill="#FCFFF5" font-family="'Futura-CondensedMedium'" font-size="18">Establishments across Nepal: 4076</tspan><tspan x="0" y="21.6" fill="#FCFFF5" font-family="'Futura-CondensedMedium'" font-size="18">Employees: 195 Thousand</tspan><tspan x="0" y="43.2" fill="#FCFFF5" font-family="'Futura-CondensedMedium'" font-size="18">National Value: Rs 80 Million</tspan></text>
</g>
<g id="heading">
	<g id="heading-1">
		<rect x="26.976" y="18.65" fill="#FF6138" width="130.7" height="56.621"/>
		<text transform="matrix(1 0 0 1 46.1748 59.4487)" fill="#FCFFF5" font-family="'Futura-Medium'" font-size="36">Top 5</text>
	</g>
	<g id="heading-2">
		<rect x="25.376" y="87.111" fill="#FF6138" width="432.055" height="56.621"/>
		<text transform="matrix(1 0 0 1 45.7905 121.9253)"><tspan x="0" y="0" fill="#FCFFF5" font-family="'Futura-Medium'" font-size="25.6045">Manufacturing Industries </tspan><tspan x="293.989" y="0" fill="#FCFFF5" font-family="'Gabriola'" font-size="25.6045">of</tspan><tspan x="309.011" y="0" fill="#FCFFF5" font-family="'Futura-Medium'" font-size="25.6045"> Nepal</tspan></text>
	</g>
</g>
</svg>
